<svg xmlns="http://www.w3.org/2000/svg" width="500" height="140.67" viewBox="0 0 500 140.67"><title>bOnline logo</title><path d="M157.74,26.7C183.19,26.7,202,46.1,202,71.06c0,25.46-18.79,45.48-44.24,45.48s-44.24-20-44.24-45.48C113.5,46.1,132.4,26.7,157.74,26.7Zm0,81.8c20.39,0,35.34-16.31,35.34-37.44,0-20.64-15-36.33-35.34-36.33s-35.35,15.69-35.35,36.33C122.39,92.19,137.47,108.5,157.74,108.5Z" fill="#637280"/><path d="M217.3,56a2.81,2.81,0,0,1,3.09-3.1h2.23a2.77,2.77,0,0,1,3,3.1v7.16a20.6,20.6,0,0,1-.49,4.45h.24a27.48,27.48,0,0,1,25.09-16.19c15.45,0,20.89,8.78,20.89,24.1V112a2.8,2.8,0,0,1-3.09,3.09h-2.35c-2,0-3-1.11-3-3.09V77.73c0-9.76-1.6-18.41-13.59-18.41-13.22,0-23.6,10.88-23.6,25.33V112c0,2-1,3.09-3,3.09h-2.35A2.8,2.8,0,0,1,217.3,112Z" fill="#637280"/><path d="M289.6,31.27c0-2,1-3.09,3-3.09h2.35A2.8,2.8,0,0,1,298,31.27V98.86c0,7.79,3.71,8.65,6.43,9A2.49,2.49,0,0,1,307,110.6v1.86c0,1.85-.87,3.09-3.21,3.09-5.07,0-14.21-1.61-14.21-15.2Z" fill="#637280"/><path d="M319.63,56a2.8,2.8,0,0,1,3.08-3.1h2.35c2,0,3,1.12,3,3.1v56c0,2-1,3.09-3,3.09h-2.35a2.8,2.8,0,0,1-3.08-3.09Z" fill="#637280"/><path d="M347.18,56a2.81,2.81,0,0,1,3.09-3.1h2.23a2.77,2.77,0,0,1,3,3.1v7.16A20.6,20.6,0,0,1,355,67.6h.25A27.45,27.45,0,0,1,380.3,51.41c15.45,0,20.89,8.78,20.89,24.1V112a2.81,2.81,0,0,1-3.1,3.09h-2.34c-2,0-3-1.11-3-3.09V77.73c0-9.76-1.6-18.41-13.59-18.41-13.22,0-23.6,10.88-23.6,25.33V112c0,2-1,3.09-3,3.09h-2.35a2.8,2.8,0,0,1-3.09-3.09Z" fill="#637280"/><path d="M445.92,51.41c16.56,0,25.95,12,25.95,29.66a3.09,3.09,0,0,1-3.21,3.09H423.93C424.3,100,435.17,109,448,109a26.59,26.59,0,0,0,16.31-5.69c1.73-1.11,3.1-.86,4.08.75l1,1.48a2.89,2.89,0,0,1-.86,4.08,35.46,35.46,0,0,1-20.77,6.92c-18.53,0-32.5-13.35-32.5-32.5C415.27,63.65,429.11,51.41,445.92,51.41Zm17.43,26.45c-.5-13.1-8.41-19.53-17.67-19.53-10.39,0-19.41,6.92-21.38,19.53Z" fill="#637280"/><path d="M318.8,37.84h10S340,38.13,340,26.65H329.24S318.51,26.5,318.8,37.84Z" fill="#19d5b2"/><path d="M64.74,45.78a35.85,35.85,0,0,0-23.46,8.51V26.06a4.54,4.54,0,0,0-4.89-4.79H33.9a4.43,4.43,0,0,0-4.76,4.79V80.67c0,.07,0,.14,0,.21s0,.14,0,.21v.11h0a35.36,35.36,0,0,0,35.73,35.42,35.3,35.3,0,0,0,35.61-35.74C100.48,61.2,84.78,45.78,64.74,45.78Zm.13,59.85c-13.22,0-23.59-10.87-23.59-24.74v0c0-13.51,10.37-24.1,23.59-24.1S88.33,67.36,88.33,80.88C88.33,94.76,78,105.63,64.87,105.63Z" fill="#1f8ceb"/></svg>