<svg xmlns="http://www.w3.org/2000/svg" width="120" height="120" viewBox="0 0 120 120"><title>Phone voip 120</title><rect x="52.31" y="23.48" width="45.01" height="80.7" rx="5.27" fill="#fff"/><rect x="52.31" y="23.48" width="45.01" height="80.7" rx="5.27" stroke-width="2" stroke="#2e2d7f" stroke-linecap="round" stroke-linejoin="round" fill="none"/><circle cx="74.25" cy="96.62" r="3.56" fill="#2e2d7f"/><line x1="68.81" y1="29.77" x2="80.44" y2="29.77" fill="#fff" stroke="#2e2d7f" stroke-linecap="round" stroke-linejoin="round" stroke-width="2"/><line x1="54.4" y1="35.3" x2="95.99" y2="35.3" fill="#fff" stroke="#2e2d7f" stroke-linecap="round" stroke-linejoin="round" stroke-width="2"/><line x1="54.4" y1="89.19" x2="95.99" y2="89.19" fill="#fff" stroke="#2e2d7f" stroke-linecap="round" stroke-linejoin="round" stroke-width="2"/><path d="M56.57,84.21a5.21,5.21,0,0,0-7.67-1.78c-2.2,1.37-4.4,2.73-6.58,4.13a1.08,1.08,0,0,1-1.54-.07c-1-.9-2.13-1.7-3.08-2.65a56.84,56.84,0,0,1-10.59-15.3,32.77,32.77,0,0,1-3-8.8,1.16,1.16,0,0,1,.6-1.36c2.2-1.32,4.35-2.69,6.53-4.06,3-1.9,3.69-4.79,1.8-7.85-1.08-1.74-2.16-3.45-3.23-5.19s-2.21-3.57-3.34-5.34a5.24,5.24,0,0,0-7.67-1.76c-2.22,1.36-4.37,2.79-6.61,4.11a9,9,0,0,0-4.1,5.25A25.5,25.5,0,0,0,7.5,54.73a66.81,66.81,0,0,0,7.13,22,73.42,73.42,0,0,0,19.44,24.06,35.25,35.25,0,0,0,12.26,6.86,9.9,9.9,0,0,0,9-1.23c1.93-1.37,4-2.53,6-3.8,3-1.88,3.68-4.83,1.84-7.79q-3.3-5.31-6.63-10.59Zm0,0" fill="#fff" stroke="#2e2d7f" stroke-linecap="round" stroke-linejoin="round" stroke-width="2"/><path d="M116.73,25.79s.83-22.18-24.52-24.51" fill="none" stroke="#19d5b2" stroke-linecap="round" stroke-linejoin="round" stroke-width="2"/><path d="M105.05,25.12s.5-11.67-11.67-11.67" fill="none" stroke="#19d5b2" stroke-linecap="round" stroke-linejoin="round" stroke-width="2"/><path d="M3.27,94.21s-.83,22.18,24.52,24.51" fill="none" stroke="#19d5b2" stroke-linecap="round" stroke-linejoin="round" stroke-width="2"/><path d="M15,94.88s-.5,11.67,11.67,11.67" fill="none" stroke="#19d5b2" stroke-linecap="round" stroke-linejoin="round" stroke-width="2"/></svg>