<svg width="424" height="300" viewBox="0 0 424 300" fill="none" xmlns="http://www.w3.org/2000/svg">
<mask id="mask0" mask-type="alpha" maskUnits="userSpaceOnUse" x="0" y="0" width="424" height="300">
<rect width="424" height="300" rx="4" fill="white"/>
</mask>
<g mask="url(#mask0)">
<rect x="-74.9305" y="153.487" width="430" height="53.4051" transform="rotate(-32.5127 -74.9305 153.487)" fill="url(#paint0_linear)"/>
</g>
<path d="M49.1001 118.887C52.2195 116.899 53.5857 113.115 51.293 109.517L44.763 99.2713L42.4178 100.766L48.9332 110.989C50.4569 113.38 49.5078 115.458 47.6635 116.633C45.8192 117.808 43.5579 117.777 42.0342 115.386L35.5188 105.163L33.1735 106.657L39.7035 116.903C41.9963 120.501 45.9808 120.875 49.1001 118.887ZM70.1925 105.124L57.9146 101.935L58.9193 90.2492L56.0504 92.0776L55.2597 101.738L51.1095 95.2265L48.7871 96.7067L58.7852 112.395L61.1076 110.914L57.001 104.471L67.0503 107.127L70.1925 105.124ZM65.1735 94.5558C65.9898 92.0185 65.4389 88.9437 63.4907 86.4393L61.487 87.7163C63.5243 90.26 63.7389 92.2043 63.6165 94.8757L65.1735 94.5558ZM81.7404 98.085C84.9053 96.0679 85.7251 92.6319 84.0563 90.0135C82.5907 87.7138 80.0144 87.3387 76.9523 88.3616L74.6522 89.1232C72.352 89.8847 71.5251 88.9389 71.2059 88.438C70.2917 87.0036 71.0464 85.2739 72.5264 84.3307C74.143 83.3004 75.9427 83.5622 76.8859 85.0422L79.2083 83.562C77.3945 80.7159 74.054 80.3475 71.2306 82.1469C68.4528 83.9172 67.1339 87.2231 68.8897 89.9782C69.7168 91.276 71.5258 92.9087 75.4097 91.618L77.7326 90.8419C79.2254 90.3708 80.8985 90.233 81.7837 91.622C82.6108 92.9198 82.2434 94.7548 80.3764 95.9447C78.4182 97.1926 76.3388 96.6929 75.4371 95.3786L73.1147 96.8587C74.7254 99.386 78.3934 100.218 81.7404 98.085ZM95.7182 88.8566L104.37 83.3424L103.006 81.2021L96.6993 85.2216L88.0652 71.6741L85.72 73.1687L95.7182 88.8566ZM113.168 78.0557C117.653 75.1971 118.844 69.3793 116.015 64.9394C113.17 60.4767 107.394 59.0993 102.909 61.958C98.4459 64.8022 97.2777 70.6054 100.122 75.0681C102.952 79.5081 108.705 80.8999 113.168 78.0557ZM111.775 75.8699C108.587 77.9015 104.513 76.7839 102.467 73.5735C100.407 70.3403 101.114 66.1754 104.302 64.1438C107.512 62.0978 111.609 63.2008 113.669 66.434C115.716 69.6445 114.985 73.8238 111.775 75.8699ZM129.534 45.2453L133.292 59.5313L124.341 51.5648L122.542 52.7112L125.983 64.1894L114.643 54.7356L112.139 56.3318L127.442 68.6386L129.423 67.3761L125.998 56.1754L134.751 63.9805L136.732 62.7181L132.039 43.6491L129.534 45.2453ZM145.439 54.1592L142.58 49.6737L148.75 45.7412L147.372 43.5782L141.202 47.5107L138.169 42.7519L145.25 38.239L143.886 36.0987L134.482 42.0918L144.48 57.7796L154.089 51.656L152.725 49.5157L145.439 54.1592ZM162.121 46.8569C165.286 44.8399 166.106 41.4039 164.437 38.7854C162.972 36.4858 160.395 36.1106 157.333 37.1336L155.033 37.8952C152.733 38.6567 151.906 37.7109 151.587 37.21C150.673 35.7755 151.427 34.0459 152.907 33.1027C154.524 32.0724 156.324 32.3342 157.267 33.8142L159.589 32.334C157.775 29.4879 154.435 29.1195 151.612 30.9189C148.834 32.6892 147.515 35.9951 149.271 38.7502C150.098 40.048 151.907 41.6806 155.791 40.39L158.114 39.6139C159.606 39.1428 161.279 39.005 162.165 40.3939C162.992 41.6918 162.624 43.5267 160.757 44.7167C158.799 45.9646 156.72 45.4649 155.818 44.1505L153.496 45.6307C155.106 48.158 158.774 48.9901 162.121 46.8569ZM170.16 19.3536L158.48 26.7978L159.844 28.9381L164.511 25.9633L173.146 39.5109L175.491 38.0163L166.857 24.4687L171.524 21.4939L170.16 19.3536Z" fill="white"/>
<defs>
<linearGradient id="paint0_linear" x1="-74.9305" y1="206.892" x2="355.069" y2="206.892" gradientUnits="userSpaceOnUse">
<stop stop-color="#1F8CEB"/>
<stop offset="0.848958" stop-color="#19D5B2"/>
</linearGradient>
</defs>
</svg>
