<svg xmlns="http://www.w3.org/2000/svg" width="120" height="120" viewBox="0 0 120 120"><title>Router 120</title><path d="M116.41,81.74,103.25,58.93A8.77,8.77,0,0,0,96.4,55H24.78a9.11,9.11,0,0,0-7,3.86L3.89,81.45" fill="#fff" stroke="#2e2d7f" stroke-miterlimit="10" stroke-width="2"/><rect x="2.49" y="79.39" width="115.02" height="27.51" rx="6.13" fill="#fff"/><rect x="2.49" y="79.39" width="115.02" height="27.51" rx="6.13" fill="none" stroke="#2e2d7f" stroke-miterlimit="10" stroke-width="2"/><rect x="66.53" y="90.76" width="8.33" height="8.36" rx="1.64" fill="none" stroke="#ee405b" stroke-miterlimit="10" stroke-width="2"/><rect x="80.89" y="90.76" width="8.33" height="8.36" rx="1.64" fill="none" stroke="#ee405b" stroke-miterlimit="10" stroke-width="2"/><rect x="94.96" y="90.76" width="8.33" height="8.36" rx="1.64" fill="none" stroke="#ee405b" stroke-miterlimit="10" stroke-width="2"/><path d="M26.89,90.33A4.07,4.07,0,0,1,31,94.49a4.14,4.14,0,1,1-8.27,0A4.06,4.06,0,0,1,26.89,90.33Zm0,7.68a3.33,3.33,0,0,0,3.3-3.52,3.3,3.3,0,1,0-6.6,0A3.34,3.34,0,0,0,26.89,98Z" fill="#637280"/><path d="M32.46,93.08a.26.26,0,0,1,.29-.29H33a.26.26,0,0,1,.28.29v.67a1.84,1.84,0,0,1,0,.42h0a2.57,2.57,0,0,1,2.34-1.52c1.44,0,2,.82,2,2.26v3.42a.26.26,0,0,1-.29.29H37c-.18,0-.27-.1-.27-.29V95.12c0-.92-.15-1.73-1.27-1.73a2.26,2.26,0,0,0-2.21,2.38v2.56c0,.19-.09.29-.28.29h-.21a.26.26,0,0,1-.29-.29Z" fill="#637280"/><path d="M39.21,90.76a.26.26,0,0,1,.28-.29h.22a.27.27,0,0,1,.29.29V97.1c0,.73.34.81.6.85a.23.23,0,0,1,.24.25v.18a.26.26,0,0,1-.3.29c-.47,0-1.33-.15-1.33-1.43Z" fill="#637280"/><path d="M42,93.08a.26.26,0,0,1,.29-.29h.21c.19,0,.28.1.28.29v5.25c0,.19-.09.29-.28.29h-.21a.26.26,0,0,1-.29-.29Z" fill="#637280"/><path d="M44.59,93.08a.26.26,0,0,1,.29-.29h.21a.25.25,0,0,1,.27.29v.67a2.28,2.28,0,0,1,0,.42h0a2.57,2.57,0,0,1,2.35-1.52c1.44,0,2,.82,2,2.26v3.42a.26.26,0,0,1-.29.29h-.22c-.19,0-.28-.1-.28-.29V95.12c0-.92-.15-1.73-1.27-1.73a2.26,2.26,0,0,0-2.2,2.38v2.56a.26.26,0,0,1-.28.29h-.22a.26.26,0,0,1-.29-.29Z" fill="#637280"/><path d="M53.82,92.65c1.54,0,2.42,1.12,2.42,2.78a.29.29,0,0,1-.3.29H51.76A2.22,2.22,0,0,0,54,98.05a2.5,2.5,0,0,0,1.53-.53.24.24,0,0,1,.38.07l.09.14a.27.27,0,0,1-.08.38,3.33,3.33,0,0,1-1.94.65,2.94,2.94,0,0,1-3-3.05A2.85,2.85,0,0,1,53.82,92.65Zm1.62,2.48a1.66,1.66,0,0,0-1.65-1.83,2,2,0,0,0-2,1.83Z" fill="#637280"/><path d="M41.94,91.38h.93a1,1,0,0,0,1.05-1h-1A1,1,0,0,0,41.94,91.38Z" fill="#19d3b0"/><path d="M18.2,92.12a3.27,3.27,0,0,0-3.32,3.29,3.33,3.33,0,1,0,6.66,0A3.28,3.28,0,0,0,18.2,92.12Zm0,5.62A2.25,2.25,0,0,1,16,95.41a2.2,2.2,0,1,1,4.4,0A2.24,2.24,0,0,1,18.22,97.74Z" fill="#1f8ae9"/><path d="M16,90.27a.43.43,0,0,0-.45-.45h-.23a.41.41,0,0,0-.43.45v5.17H16Z" fill="#1f8ae9"/><line x1="29.63" y1="40.57" x2="29.63" y2="68.66" fill="none" stroke="#2e2d7f" stroke-linecap="round" stroke-linejoin="round" stroke-width="2"/><line x1="89.78" y1="40.57" x2="89.78" y2="68.66" fill="none" stroke="#2e2d7f" stroke-linecap="round" stroke-linejoin="round" stroke-width="2"/><path d="M12.78,21.45s16-18.79,34.67,0" fill="none" stroke="#ee405b" stroke-linecap="round" stroke-linejoin="round" stroke-width="2" fill-rule="evenodd"/><path d="M17.94,26.45s11.19-13.22,24.35,0" fill="none" stroke="#ee405b" stroke-linecap="round" stroke-linejoin="round" stroke-width="2" fill-rule="evenodd"/><path d="M23.22,31s6.25-7.46,13.67,0" fill="none" stroke="#ee405b" stroke-linecap="round" stroke-linejoin="round" stroke-width="2" fill-rule="evenodd"/><path d="M72.45,21.45s16-18.79,34.67,0" fill="none" stroke="#ee405b" stroke-linecap="round" stroke-linejoin="round" stroke-width="2" fill-rule="evenodd"/><path d="M77.6,26.45s11.2-13.22,24.36,0" fill="none" stroke="#ee405b" stroke-linecap="round" stroke-linejoin="round" stroke-width="2" fill-rule="evenodd"/><path d="M82.88,31s6.26-7.46,13.68,0" fill="none" stroke="#ee405b" stroke-linecap="round" stroke-linejoin="round" stroke-width="2" fill-rule="evenodd"/></svg>