<svg xmlns="http://www.w3.org/2000/svg" xmlns:xlink="http://www.w3.org/1999/xlink" width="35" height="35" viewBox="0 0 35 35"><defs><clipPath id="a"><rect x="851.63" y="-29.25" width="376.85" height="657.86" fill="none"/></clipPath><clipPath id="b"><rect x="-1665.39" y="112.46" width="1519.11" height="657.86" fill="none"/></clipPath></defs><title>Conferencing</title><g clip-path="url(#a)"><g opacity="0.4"><path d="M-104.68,86.32c-2.1-1.82-4.21-3.6-6.32-5.4,0-1.83,0-3.63,0-5.46,8.54-15.36,6.85-29.42,4.23-47-4-26.24-4.33-56.72,14-82.2,4.17-5.78,7.45-12.18,3.64-17.77-6-9-12-.52-17.79,1.8-4,1.6-8.63,1.9-10.28-2.43-3.48-9.09-1.44-17.71,4.26-25.89,4.69-6.64,11.51-7,19-5.85C-58.48-98.43-52.1-90-59.23-58.64c-1.88,8.5-6.42,17.19.23,25.85,24.86-28.93,27.87-60,8.5-85.48-1.12-1.47-2.34-4.6-2.8-4.51C-70.18-119-87-114-76.55-139.79c5.36-13.2-5.73-28.88,6.65-41.62,8.48,1.66,8.75,9.11,10.39,15-.42-7.3-4.39-13.72,7-16.74,22.71,4,41,13.51,52,32,10.57,20.56,9.32,42.47,8,64C6.73-74.26,7.45-62,11.15-49.72-11.2-35.39-20.79-8.33-51.22-1.87-58.42-.36-66.44,1.52-65.76,9.76c2.55,31.84-15.88,68,23.85,92.48,2.45,1.51,3.78,4.26,5.47,6.55a37.18,37.18,0,0,1,3.14,4.65C-9.72,154-15.77,150.66-53.91,162.18c-8.25-11.06-21.33-18.67-10.8-36.8C-55.39,109.33-79.41,88.43-104.68,86.32Z" fill="#f3f8fc" fill-rule="evenodd"/><path d="M64.36,106.41c-9.09,6.63-6.53,14.51-2.69,22.15,4.94,9.76.72,16.82-7.1,23.92-15.06-9-3.2-26-16.3-34.21C14.63,137.1,5.91,162,2.64,188.88c-2.09,0-4.14.06-6.2.05,8.54-22.7-16-42.64-7-65.4.75-13.26-18.24-17.84-18.18-30.1,0-20.52-7.9-42.89,21.17-56.68C7.77,29.48,15,13.7,25.17,1.28c17.19-6.15,31.12,3.2,27.56,14.58-5.6,18,5.57,32.72,4.37,49.08C53,77.85,61,88.33,66.14,99.4A8.18,8.18,0,0,1,64.36,106.41Z" fill="#eff6fa" fill-rule="evenodd"/><path d="M25.79,3.12C28.63,23,10.52,34.26-3.18,41.94-26.1,54.8-19.72,73-23,89.6c-1.19,6,1,11.61,9.86,14.65,12.6,4.29,12.19,5.24,2.6,19.28-10.43-3.53-20.93-7-31.38-10.59C-90.08,84.87-72.75,41.74-73.74,3.27c-.53-21.21,28.85-3.91,36.26-18.16.63-1.25,13.82.32,12.21-7.08C-30.6-47-11.84-45.85,6.52-45.8,20-51.24,16.38-64.22,22.45-73a16.75,16.75,0,0,1,7.45-4.17c14.51-1.35,19.5,5.84,20.27,17A35.52,35.52,0,0,1,49-52.32C37.67-35,48.14-10.72,25.79,3.12Z" fill="#f1f7fb" fill-rule="evenodd"/><path d="M25.79,3.12c10.94-17,2.1-39,18.19-54.75C61.91-57.24,66.06-65,53.64-79.84,40.16-96,47.92-118.25,68.72-119.61c20.16-1.29,26.75-11.52,33.91-23.39,5.68-9.38,10.06-19,25.29-11.35,5.49,3.28,8.06,8.07,9.15,13.61,1.18,8.35-1.15,16.26-4,24.11-2.53,7.6-6.24,14.83-9.6,22.17-4.24,10.32-10.07,19.62-20.18,26.77C86.21-55.67,85.7-37.85,83-20.92a33.93,33.93,0,0,1-2,7.63,17.46,17.46,0,0,1-5.23,6.22c-2.9.81-7.37.14-8.72,1.67C58.94,3.6,66.09,51,74.91,59c12.33,11.2,29.27,20,29.5,38.46-.86,1-1.75,2.07-2.59,3.11-17.57.58-8.57,16.59-19.56,23.93-8.24-3.44-12.71-11.1-17.9-18.08,0-1.83,0-3.64-.06-5.47,7.94-14.57-13.5-20.25-12.83-32.62-.91-7.61,2.65-16.49-7.32-21.63-9.29-4.79-9-9.28-2.5-16.82C56.69,12.5,47.33,4.69,25.79,3.12Z" fill="#eef5fa" fill-rule="evenodd"/></g></g><g clip-path="url(#b)"><g opacity="0.4"><path d="M44.66,113.62c-22.34-3.61-18,16-26.19,24.24C7.18,149.25,4.17,171.65-20,148c-2.94-2.88-22.85,7.15-35-.63-.89-1-1.8-2-2.74-3-.93-22.22,10-42.25,15.64-63.26,1-3.55,3.58-6.59,6.83-8.94,21.89-15.93,24-17.55,27.65-41.07C-5,14,2.54-.33,17.76-11,42.29-28.28,55.28-49.33,49.51-77.39a30.68,30.68,0,0,1,9.76-17.28c17.47-7.26,24.1,9.92,37.23,12.46,7.67,4.16,12.46,11.36,20.66,15,4.07,13.32-5.65,25.21-5.37,38.14-4.82-2.54-11.74,1-17,5.21C59,5.07,72,50.33,47.1,83c-4,5.14,3.62,11.8,5.29,17.85C54,106.54,57.68,114.2,44.66,113.62Z" fill="#dbecfc" fill-rule="evenodd"/><path d="M-55.06,147.39c-6.2,1.89-12.47,3.76-18.7,5.64-8.53-7.18-14.28-15.55-14.34-26.26a13.58,13.58,0,0,1,6.69-4.35c13.7-.56,10.8-10.36,12.6-17.24,1.1-1.37,2-2.41,2.43-2.86a14.42,14.42,0,0,1-3.94,3.06A9.3,9.3,0,0,1-77.24,103c-9.56-15.7-23.7-31.73,4.89-44.22,21.84-8.34,8.7-32.32,25.24-43a20.52,20.52,0,0,1,7.58-2.31c7.76.65,11.35-2.34,10.47-9.28A24.63,24.63,0,0,1-27.73-3c20-31.3,44.8-58.58,83-74.44C64.57-48,52.53-25.91,25-8.25,9.35,1.75-2,15.26.37,33.29,2.55,50-22.75,65.2-2.81,82.46-6,84.58-8.76,87.54-12.32,88.7c-4.55,1.48-8.2-1-8.66-5.17S-18,73.29-25.64,73.14C-32.8,73-35,79-36.62,84.53-42.6,105.52-48.89,126.44-55.06,147.39Z" fill="#dcedfc" fill-rule="evenodd"/><path d="M-73.51-441.74c2.25-7.37,22.84-6.91,11.51-19.95-8.13-9.36-2-16.86,6.73-19,9-2.15,14.35,12.16,14.12,13.43-5.29,26.84,21,23.47,36.47,30.22,4.11,1,7.53,3,9.28,6.33,4.86,9,9.17,20.13,23.88,13.57,14-6.26,26-15.71,18.78-31.78-4.56-10.08-4.33-18.67,4-26.9,4.64-1,11.82-15.13,12.95,1.95.46,6.47,5.87,8.17,12.19,8.71,6.94,13.9,14.2,27.73,12.9,43.53-7.33,3.12-11.41,8.74-9.4,15.26,5,16.17-6.29,27-15,38.83-14.22,19.31-18,19.47-38.5,2-1.64-6.19.45-11.81,4.09-18.77-4.55,6.22-4.87,11.84-5.66,17.34,6,9.41,11.88,18.73,20.19,26.93,14.17,14,19.21,29.56,6.32,46.74a21.58,21.58,0,0,0-3.42,20.69c2.28,7.07,1.77,14.26.94,21.44-2.94,25.77-2.83,25.54,22.63,36.52,5.45,2.32,4.94,7.23,1.28,11.42,0,1.82,0,3.65,0,5.46-12.91,9.89-13.33,33.77-43.19,25.48-8.56-2.38-8.21,8.25-1.13,16.8C50.67-128.76,46.83-117.34,14-102.72c-3.23,1.43-4.86,2.25-4.72,5.2C10.55-70-3.55-47.76-21.86-26.67-28.57-19-24.57-9.12-25.26-.25c0,1.82,0,3.64,0,5.46,2.28,9.14-2.24,12.51-12.41,11l-6.25.07c-15.18,6.85-16.21-2.06-14.95-11.06,1.57-11.62,4.95-23,12.73-32.95-11.82-7.7-28.35-5.54-38.48-15.59a16.2,16.2,0,0,1-1.28-7.67c13.46-12.13,1.11-25.72-.29-37-4.91-40,6.54-81.7-14.88-119.92a42.22,42.22,0,0,1-5.1-10.92c-1.09-10.72,6.63-16.95,15.2-22.75,14.61-3.6,22.69,3.14,23.44,14.44,1.87,28.58,12.08,56.58,7.76,85.59a43.18,43.18,0,0,1-.63,7.51c-5,23.87-3.31,46.62,15.43,67.32,15.86-18.46,27-38,21.59-62.19-4.07-19.2-8.7-38.37-3.63-58,4.19-14.14,20.46-24.65,18.29-41.86C-24.76-226.61-32-204.11-49.07-215c-17.52-11.22,4.49-21.78,5.47-33.07,1.52-16.85,5.88-33.58,3.55-50.6-2.71-8.45-9-15.81-9.69-24.82a16,16,0,0,1,4-7.16c6.74-7.84,27,5.2,26.35-11.32-.87-19.69-11.69-38.1-13.45-58-.24-2.68-4.63-2.13-7.71-2.48C-76.9-406.45-80.48-410.85-73.51-441.74Z" fill="#e0effc" fill-rule="evenodd"/></g></g><rect x="2.19" y="3.46" width="30.61" height="21.67" rx="1.33" fill="#fff"/><rect x="2.19" y="3.46" width="30.61" height="21.67" rx="1.33" fill="none" stroke="#2e2d7f" stroke-linecap="round" stroke-linejoin="round"/><rect x="15.03" y="25.27" width="4.44" height="4.61" fill="#fff" stroke="#2e2d7f" stroke-linecap="round" stroke-linejoin="round"/><path d="M28.93,31.54V30.7c0-.45-.68-.83-1.51-.83H7.31c-.83,0-1.51.38-1.51.83v.84S28.93,31.42,28.93,31.54Z" fill="#fff" stroke="#2e2d7f" stroke-linecap="round" stroke-linejoin="round"/><path d="M11.17,7.24s-2.7-.17-2.5,3.26c0,0,0,3,2.43,3.11,2.13.15,2.52-2.48,2.52-2.48S14.41,7.43,11.17,7.24Z" fill="#fff" stroke="#2e2d7f" stroke-linecap="round" stroke-linejoin="round"/><path d="M9.35,14.39a6.86,6.86,0,0,1-2.27,1,1.42,1.42,0,0,0-1.15,1.27,7.63,7.63,0,0,0,0,1.92,11.25,11.25,0,0,0,10.52,0,7.13,7.13,0,0,0,0-1.92,1.42,1.42,0,0,0-1.14-1.27,7,7,0,0,1-2.28-1" fill="#fff" stroke="#2e2d7f" stroke-linecap="round" stroke-linejoin="round"/><path d="M23.77,7.24s-2.71-.17-2.5,3.26c0,0,0,3,2.43,3.11,2.13.15,2.51-2.48,2.51-2.48S27,7.43,23.77,7.24Z" fill="#fff" stroke="#2e2d7f" stroke-linecap="round" stroke-linejoin="round"/><path d="M22,14.39a7,7,0,0,1-2.27,1,1.42,1.42,0,0,0-1.15,1.27,7.13,7.13,0,0,0,0,1.92,11.25,11.25,0,0,0,10.52,0,7.13,7.13,0,0,0,0-1.92,1.42,1.42,0,0,0-1.15-1.27,7,7,0,0,1-2.27-1" fill="#fff" stroke="#2e2d7f" stroke-linecap="round" stroke-linejoin="round"/></svg>