<svg xmlns="http://www.w3.org/2000/svg" width="120" height="120" viewBox="0 0 120 120"><title>Lrg icon</title><rect x="55.2" y="26.78" width="41.34" height="74.12" rx="3.55" fill="#fff"/><rect x="55.2" y="26.78" width="41.34" height="74.12" rx="3.55" stroke-width="1.8" stroke="#2e2d7f" stroke-linecap="round" stroke-linejoin="round" fill="none"/><circle cx="75.35" cy="93.96" r="3.27" fill="#2e2d7f"/><line x1="70.36" y1="32.56" x2="81.04" y2="32.56" fill="#fff" stroke="#2e2d7f" stroke-linecap="round" stroke-linejoin="round" stroke-width="1.8"/><line x1="57.12" y1="37.63" x2="95.32" y2="37.63" fill="#fff" stroke="#2e2d7f" stroke-linecap="round" stroke-linejoin="round" stroke-width="1.8"/><line x1="57.12" y1="87.13" x2="95.32" y2="87.13" fill="#fff" stroke="#2e2d7f" stroke-linecap="round" stroke-linejoin="round" stroke-width="1.8"/><path d="M59.11,82.55a4.78,4.78,0,0,0-7-1.62c-2,1.25-4,2.5-6,3.79a1,1,0,0,1-1.41-.07c-.93-.83-2-1.56-2.83-2.43a52.32,52.32,0,0,1-9.72-14,29.93,29.93,0,0,1-2.78-8.09,1,1,0,0,1,.55-1.24c2-1.22,4-2.48,6-3.74,2.78-1.74,3.39-4.4,1.65-7.21-1-1.59-2-3.16-3-4.76s-2-3.28-3.07-4.91a4.81,4.81,0,0,0-7-1.61c-2,1.25-4,2.55-6.08,3.77a8.22,8.22,0,0,0-3.76,4.83,23.46,23.46,0,0,0-.51,10.27,61.58,61.58,0,0,0,6.54,20.18,67.52,67.52,0,0,0,17.86,22.1,32.42,32.42,0,0,0,11.26,6.3A9.11,9.11,0,0,0,58,102.93c1.77-1.25,3.69-2.33,5.54-3.49,2.73-1.73,3.37-4.44,1.68-7.16q-3-4.87-6.09-9.73Zm0,0" fill="#fff" stroke="#2e2d7f" stroke-linecap="round" stroke-linejoin="round" stroke-width="1.8"/><path d="M114.37,28.9s.76-20.37-22.52-22.52" fill="none" stroke="#f1667c" stroke-linecap="round" stroke-linejoin="round" stroke-width="1.8"/><path d="M103.65,28.29s.45-10.72-10.73-10.72" fill="none" stroke="#f1667c" stroke-linecap="round" stroke-linejoin="round" stroke-width="1.8"/><path d="M10.16,91.74s-.77,20.37,22.52,22.52" fill="none" stroke="#f1667c" stroke-linecap="round" stroke-linejoin="round" stroke-width="1.8"/><path d="M20.88,92.35s-.46,10.73,10.72,10.73" fill="none" stroke="#f1667c" stroke-linecap="round" stroke-linejoin="round" stroke-width="1.8"/><line x1="52.12" y1="11.11" x2="59.06" y2="11.11" fill="none" stroke="#2e2d7f" stroke-linecap="round" stroke-linejoin="round" stroke-width="1.8"/><line x1="55.75" y1="7.61" x2="55.75" y2="14.48" fill="none" stroke="#2e2d7f" stroke-linecap="round" stroke-linejoin="round" stroke-width="1.8"/><line x1="105.84" y1="100.45" x2="112.78" y2="100.45" fill="none" stroke="#2e2d7f" stroke-linecap="round" stroke-linejoin="round" stroke-width="1.8"/><line x1="109.48" y1="96.94" x2="109.48" y2="103.82" fill="none" stroke="#2e2d7f" stroke-linecap="round" stroke-linejoin="round" stroke-width="1.8"/><circle cx="12.78" cy="29.78" r="3" fill="none" stroke="#2e2d7f" stroke-linecap="round" stroke-linejoin="round" stroke-width="1.8"/></svg>