<svg xmlns="http://www.w3.org/2000/svg" width="120" height="120" viewBox="0 0 120 120"><title>Pig</title><path d="M41.81,46.43v20h10S55,65,54.21,56.26,41.81,46.43,41.81,46.43Z" fill="#fff" stroke="#2e2d7f" stroke-linecap="round" stroke-linejoin="round" stroke-width="1.99"/><rect x="53.15" y="99.96" width="11.04" height="12.03" stroke-width="1.99" stroke="#2e2d7f" stroke-linecap="round" stroke-linejoin="round" fill="#fff"/><rect x="79.84" y="99.63" width="11.04" height="12.35" stroke-width="1.99" stroke="#2e2d7f" stroke-linecap="round" stroke-linejoin="round" fill="#fff"/><path d="M33.21,86.35H29V70.93h7.09l.33-.14A24.84,24.84,0,0,1,60.05,53.24H80A24.82,24.82,0,0,1,104.72,78v1.33A24.82,24.82,0,0,1,80,104.05H60.05A24.8,24.8,0,0,1,38.22,90.91c0-.1-.19,0-.19,0H32.59l.91-4.54Z" fill="#fff" stroke="#2e2d7f" stroke-linecap="round" stroke-linejoin="round" stroke-width="1.99"/><path d="M51.64,46.43v20h10S64.8,65,64,56.26,51.64,46.43,51.64,46.43Z" fill="#fff" stroke="#2e2d7f" stroke-linecap="round" stroke-linejoin="round" stroke-width="1.99"/><path d="M41.13,75.69s3.78-5.44,7.26,0" fill="#fff" stroke="#2e2d7f" stroke-linecap="round" stroke-linejoin="round" stroke-width="1.99"/><circle cx="95.15" cy="57.88" r="16.62" fill="#fff" stroke="#19d5b2" stroke-linecap="round" stroke-linejoin="round" stroke-width="1.99"/><circle cx="20.66" cy="44.46" r="11.33" fill="#fff" stroke="#19d5b2" stroke-linecap="round" stroke-linejoin="round" stroke-width="1.99"/><circle cx="69.41" cy="25.5" r="11.33" fill="#fff" stroke="#19d5b2" stroke-linecap="round" stroke-linejoin="round" stroke-width="1.99"/><line x1="90.35" y1="8.02" x2="90.35" y2="31.66" fill="none" stroke="#2e2d7f" stroke-linecap="round" stroke-linejoin="round" stroke-width="1.99"/><line x1="101.43" y1="16.14" x2="101.43" y2="30.92" fill="none" stroke="#2e2d7f" stroke-linecap="round" stroke-linejoin="round" stroke-width="1.99"/><line x1="48.98" y1="10.23" x2="48.98" y2="21.31" fill="none" stroke="#2e2d7f" stroke-linecap="round" stroke-linejoin="round" stroke-width="1.99"/><line x1="1.7" y1="48.65" x2="1.7" y2="65.64" fill="none" stroke="#2e2d7f" stroke-linecap="round" stroke-linejoin="round" stroke-width="1.99"/><line x1="33.51" y1="25.97" x2="41.01" y2="25.97" fill="none" stroke="#19d5b2" stroke-linecap="round" stroke-linejoin="round" stroke-width="1.68"/><line x1="37.44" y1="22.19" x2="37.44" y2="29.61" fill="none" stroke="#19d5b2" stroke-linecap="round" stroke-linejoin="round" stroke-width="1.68"/><line x1="10.64" y1="74.95" x2="17.63" y2="74.95" fill="none" stroke="#19d5b2" stroke-linecap="round" stroke-linejoin="round" stroke-width="1.57"/><line x1="14.3" y1="71.42" x2="14.3" y2="78.34" fill="none" stroke="#19d5b2" stroke-linecap="round" stroke-linejoin="round" stroke-width="1.57"/><line x1="110.98" y1="39.13" x2="118.21" y2="39.13" fill="none" stroke="#19d5b2" stroke-linecap="round" stroke-linejoin="round" stroke-width="1.62"/><line x1="114.77" y1="35.48" x2="114.77" y2="42.64" fill="none" stroke="#19d5b2" stroke-linecap="round" stroke-linejoin="round" stroke-width="1.62"/><path d="M17.52,44h.65V42.11A3.17,3.17,0,0,1,21.63,39a4.11,4.11,0,0,1,2.71,1.1l-1.11,1.33a2.64,2.64,0,0,0-1.56-.65,1.38,1.38,0,0,0-1.51,1.36V44h2.68v1.32H20.16v3h4.73V50h-7.6V48.3h.88v-3h-.65Z" fill="#19d5b2"/><path d="M66.17,24.38h.65V22.54a3.18,3.18,0,0,1,3.46-3.08A4.09,4.09,0,0,1,73,20.55l-1.1,1.34a2.66,2.66,0,0,0-1.57-.66,1.39,1.39,0,0,0-1.51,1.37v1.78h2.68v1.31H68.81v3h4.73v1.68h-7.6V28.73h.88v-3h-.65Z" fill="#19d5b2"/><path d="M90.67,56.56h.94V53.89c0-2.6,2.12-4.47,5-4.47a6,6,0,0,1,4,1.59L99,53a3.85,3.85,0,0,0-2.27-1,2,2,0,0,0-2.2,2v2.58h3.9v1.91H94.5v4.41h6.87v2.44h-11V62.88h1.27V58.47h-.94Z" fill="#19d5b2"/><path d="M108.4,89.18s-1.75,5.93-4.49,8.23" fill="none" stroke="#2e2d7f" stroke-linecap="round" stroke-linejoin="round" stroke-width="1.99"/><path d="M56.66,42.41s5.32,1.4,5.6,3.07" fill="none" stroke="#2e2d7f" stroke-linecap="round" stroke-linejoin="round" stroke-width="1.99"/><path d="M37.65,45.76a17.51,17.51,0,0,0-.28,4.76" fill="none" stroke="#2e2d7f" stroke-linecap="round" stroke-linejoin="round" stroke-width="1.99"/><path d="M41.84,101.13s2.8,2.79,4.76,3.07" fill="none" stroke="#2e2d7f" stroke-linecap="round" stroke-linejoin="round" stroke-width="1.99"/><path d="M14.72,27.87s-3.91.28-4.75,2.79" fill="none" stroke="#2e2d7f" stroke-linecap="round" stroke-linejoin="round" stroke-width="1.99"/><path d="M104.74,79.72c3,.35,5.89-1.43,8.1-3.76,2.58-2.73,2.84-4.13,2.84-4.13s1-2.89-1-3.48S112,71,112,71a7.69,7.69,0,0,0,2,6.48,9.09,9.09,0,0,0,4.28,2.41" fill="#fff" stroke="#2e2d7f" stroke-linecap="round" stroke-linejoin="round" stroke-width="1.99"/></svg>