<svg xmlns="http://www.w3.org/2000/svg" width="120" height="120" viewBox="0 0 120 120"><title>Lrg icon</title><rect x="9.27" y="31.31" width="96.21" height="55.16" rx="4.77" fill="#fff"/><rect x="9.27" y="31.31" width="96.21" height="55.16" rx="4.77" stroke-width="1.8" stroke="#2e2d7f" stroke-linecap="round" stroke-linejoin="round" fill="none"/><rect x="42.98" y="86.31" width="28.86" height="14.79" stroke-width="1.8" stroke="#2e2d7f" stroke-linecap="round" stroke-linejoin="round" fill="#fff"/><rect x="9.27" y="18.67" width="96.21" height="55.16" rx="4.77" fill="#fff"/><rect x="9.27" y="18.67" width="96.21" height="55.16" rx="4.77" stroke-width="1.8" stroke="#2e2d7f" stroke-linecap="round" stroke-linejoin="round" fill="none"/><rect x="14.36" y="23.81" width="86.11" height="45.56" fill="#fff"/><rect x="15.72" y="27.51" width="21.64" height="21.64" stroke-width="1.8" stroke="#19d5b2" stroke-linecap="round" stroke-linejoin="round" fill="#fff"/><rect x="45.94" y="27.51" width="21.64" height="21.64" stroke-width="1.8" stroke="#19d5b2" stroke-linecap="round" stroke-linejoin="round" fill="#fff"/><rect x="75.08" y="27.51" width="21.64" height="21.64" stroke-width="1.8" stroke="#19d5b2" stroke-linecap="round" stroke-linejoin="round" fill="#fff"/><rect x="82.1" y="50.01" width="28.62" height="51.32" rx="2.46" fill="#fff"/><rect x="82.1" y="50.01" width="28.62" height="51.32" rx="2.46" stroke-width="1.8" stroke="#2e2d7f" stroke-linecap="round" stroke-linejoin="round" fill="none"/><rect x="84.61" y="60.07" width="23.14" height="33.4" fill="#fff"/><circle cx="96.06" cy="95.28" r="2.27" fill="#2e2d7f"/><line x1="92.6" y1="54.5" x2="99.99" y2="54.5" fill="#fff" stroke="#2e2d7f" stroke-linecap="round" stroke-linejoin="round" stroke-width="1.8"/><line x1="83.44" y1="59.48" x2="109.88" y2="59.48" fill="#fff" stroke="#2e2d7f" stroke-linecap="round" stroke-linejoin="round" stroke-width="1.8"/><line x1="83.44" y1="89.85" x2="109.88" y2="89.85" fill="#fff" stroke="#2e2d7f" stroke-linecap="round" stroke-linejoin="round" stroke-width="1.8"/><rect x="85.67" y="63.67" width="8.67" height="8.67" stroke-width="1.8" stroke="#19d5b2" stroke-linecap="round" stroke-linejoin="round" fill="#fff"/><rect x="97.78" y="63.67" width="8.67" height="8.67" stroke-width="1.8" stroke="#19d5b2" stroke-linecap="round" stroke-linejoin="round" fill="#fff"/><circle cx="59.06" cy="79.28" r="2.27" fill="#2e2d7f"/><circle cx="19.12" cy="98.85" r="2.27" fill="#fff" stroke="#19d5b2" stroke-linecap="round" stroke-linejoin="round" stroke-width="1.8"/><circle cx="98.78" cy="10.18" r="2.27" fill="#fff" stroke="#19d5b2" stroke-linecap="round" stroke-linejoin="round" stroke-width="1.8"/><line x1="12.45" y1="7.78" x2="29.12" y2="7.78" fill="none" stroke="#2e2d7f" stroke-linecap="round" stroke-linejoin="round" stroke-width="1.8"/><line x1="71.12" y1="111.45" x2="87.78" y2="111.45" fill="none" stroke="#2e2d7f" stroke-linecap="round" stroke-linejoin="round" stroke-width="1.8"/></svg>