<svg xmlns="http://www.w3.org/2000/svg" width="120" height="120" viewBox="0 0 120 120"><title>Hand cloud</title><path d="M15,28.84c-.61,3.22-1.1,3.7-4.33,4.27,3.23.62,3.71,1.1,4.28,4.33.61-3.22,1.1-3.7,4.33-4.27-3.22-.62-3.7-1.1-4.28-4.33Zm0,0" fill="none" stroke="#f1667c" stroke-linecap="round" stroke-linejoin="round" stroke-width="1.99"/><path d="M103.52,55.3c-.62,3.23-1.1,3.71-4.33,4.28,3.22.62,3.7,1.1,4.27,4.33.62-3.22,1.1-3.7,4.33-4.28-3.22-.61-3.7-1.09-4.27-4.33Zm0,0" fill="none" stroke="#f1667c" stroke-linecap="round" stroke-linejoin="round" stroke-width="1.99"/><path d="M49.28,18.71s7.83-9.32,17.15-5.59" fill="none" stroke="#2e2d7f" stroke-linecap="round" stroke-linejoin="round" stroke-width="1.99"/><path d="M81,95.32,68.67,105s-6,4.1-12.3,3" fill="none" stroke="#2e2d7f" stroke-linecap="round" stroke-linejoin="round" stroke-width="1.99"/><path d="M44.59,81.91,55.3,87c3.32,1.57,7.2.39,8.63-2.62S63.82,77.59,60.5,76l-9.76-4.63-6.48-3.21a10.52,10.52,0,0,0-4.63,0L26.07,70.84V93.46h9.18a9.42,9.42,0,0,1,3.46.67L56.15,101a14.17,14.17,0,0,0,3.91,1,7.81,7.81,0,0,0,1.71-.23,24.1,24.1,0,0,0,3.74-2.08L95,77.51s3.7-3-.16-7A5,5,0,0,0,88,70L63.44,85.49" fill="none" stroke="#2e2d7f" stroke-linecap="round" stroke-linejoin="round" stroke-width="1.99"/><path d="M87.11,70.37a7.52,7.52,0,0,0-7.66-1.3c-4.38,1.77-16.53,8.39-16.53,8.39" fill="none" stroke="#2e2d7f" stroke-linecap="round" stroke-linejoin="round" stroke-width="1.99"/><path d="M50.22,27.1A16.43,16.43,0,0,1,80.6,35.79" fill="none" stroke="#f1667c" stroke-linecap="round" stroke-linejoin="round" stroke-width="2.39"/><path d="M37,35A7.93,7.93,0,0,1,37,34a8.32,8.32,0,0,1,16.63-.35" fill="none" stroke="#f1667c" stroke-linecap="round" stroke-linejoin="round" stroke-width="2.39"/><path d="M37,35a12.58,12.58,0,0,0,5.25,24l36,0A11.67,11.67,0,1,0,75.62,36" fill="none" stroke="#f1667c" stroke-linecap="round" stroke-linejoin="round" stroke-width="2.39"/><line x1="14.06" y1="11.81" x2="28.22" y2="22.99" fill="none" stroke="#2e2d7f" stroke-linecap="round" stroke-linejoin="round" stroke-width="1.99"/><line x1="23.02" y1="46.85" x2="5.1" y2="49.09" fill="none" stroke="#2e2d7f" stroke-linecap="round" stroke-linejoin="round" stroke-width="1.99"/><line x1="106.16" y1="11.81" x2="92.34" y2="22.99" fill="none" stroke="#2e2d7f" stroke-linecap="round" stroke-linejoin="round" stroke-width="1.99"/><line x1="97.42" y1="46.85" x2="114.9" y2="49.09" fill="none" stroke="#2e2d7f" stroke-linecap="round" stroke-linejoin="round" stroke-width="1.99"/></svg>