<svg xmlns="http://www.w3.org/2000/svg" width="120" height="120" viewBox="0 0 120 120"><title>Clock</title><path d="M99,71.4A34.68,34.68,0,1,1,90.7,48.86" fill="none" stroke="#7771ff" stroke-linecap="round" stroke-linejoin="round" stroke-width="2.39"/><path d="M75.63,49.74a23.29,23.29,0,1,1-16-1.7" fill="none" stroke="#2e2d7f" stroke-linecap="round" stroke-linejoin="round" stroke-width="1.99"/><path d="M76.61,30.84s20.9.38,28.49,19c-.82,0,8.58-13.11-4.56-22C85.65,17.68,75.63,31.74,76.61,30.84Z" fill="none" stroke="#2e2d7f" stroke-linecap="round" stroke-linejoin="round" stroke-width="1.99"/><path d="M29.57,42.7A22.82,22.82,0,0,1,42.41,35c-.12.64-9.09-8.54-17.92.52-10,10.29-.36,20.1-.93,19.2A28.33,28.33,0,0,1,26,48" fill="none" stroke="#2e2d7f" stroke-linecap="round" stroke-linejoin="round" stroke-width="1.99"/><polyline points="42.04 101.5 39.38 114.42 50.78 106.44" fill="none" stroke="#2e2d7f" stroke-linecap="round" stroke-linejoin="round" stroke-width="1.99"/><polyline points="83.83 104.54 98.27 113.66 94.47 96.94" fill="none" stroke="#2e2d7f" stroke-linecap="round" stroke-linejoin="round" stroke-width="1.99"/><path d="M27.6,92s3,6.07,5.32,6.83" fill="none" stroke="#2e2d7f" stroke-linecap="round" stroke-linejoin="round" stroke-width="1.99"/><line x1="49.64" y1="30.08" x2="48.88" y2="26.28" fill="none" stroke="#2e2d7f" stroke-linecap="round" stroke-linejoin="round" stroke-width="1.99"/><line x1="79.27" y1="109.48" x2="83.83" y2="112.52" fill="none" stroke="#2e2d7f" stroke-linecap="round" stroke-linejoin="round" stroke-width="1.99"/><line x1="79.27" y1="112.9" x2="81.17" y2="114.8" fill="none" stroke="#2e2d7f" stroke-linecap="round" stroke-linejoin="round" stroke-width="1.99"/><path d="M116,107.62a2.79,2.79,0,0,1,.81,0,2.53,2.53,0,1,1-3,1.92" fill="none" stroke="#2e2d7f" stroke-linecap="round" stroke-linejoin="round" stroke-width="1.99"/><path d="M4,70.87a2.48,2.48,0,0,1-.81-.05,2.53,2.53,0,1,1,3-1.91" fill="none" stroke="#2e2d7f" stroke-linecap="round" stroke-linejoin="round" stroke-width="1.99"/><path d="M112.89,27.23s3,4.18,2.28,6.84" fill="none" stroke="#2e2d7f" stroke-linecap="round" stroke-linejoin="round" stroke-width="1.99"/><path d="M102.63,34.83s2.66,5.32,2.28,8" fill="none" stroke="#2e2d7f" stroke-linecap="round" stroke-linejoin="round" stroke-width="1.99"/><path d="M8.8,45.09s-1.14,7.22,2.28,11.78" fill="none" stroke="#2e2d7f" stroke-linecap="round" stroke-linejoin="round" stroke-width="1.99"/><line x1="56.67" y1="16.6" x2="63.12" y2="15.84" fill="none" stroke="#2e2d7f" stroke-linecap="round" stroke-linejoin="round" stroke-width="1.99"/><line x1="39.57" y1="18.12" x2="36.91" y2="18.5" fill="none" stroke="#2e2d7f" stroke-linecap="round" stroke-linejoin="round" stroke-width="1.99"/><line x1="46.41" y1="5.2" x2="46.41" y2="7.48" fill="none" stroke="#2e2d7f" stroke-linecap="round" stroke-linejoin="round" stroke-width="1.99"/><line x1="105.67" y1="20.02" x2="106.43" y2="22.29" fill="none" stroke="#2e2d7f" stroke-linecap="round" stroke-linejoin="round" stroke-width="1.99"/><line x1="108.39" y1="54.29" x2="110.67" y2="54.29" fill="none" stroke="#2e2d7f" stroke-linecap="round" stroke-linejoin="round" stroke-width="1.99"/><line x1="104.19" y1="99.03" x2="106.47" y2="98.27" fill="none" stroke="#2e2d7f" stroke-linecap="round" stroke-linejoin="round" stroke-width="1.99"/><path d="M47.14,13.21C47,16.49,46.55,17,43.43,18c3.28.18,3.81.59,4.82,3.72.17-3.28.59-3.82,3.71-4.82-3.27-.18-3.81-.59-4.82-3.72Zm0,0" fill="none" stroke="#7771ff" stroke-linecap="round" stroke-linejoin="round" stroke-width="1.99"/><path d="M108.78,83c.44,2,.28,2.34-1.39,3.44,2-.44,2.34-.28,3.45,1.39-.44-2-.28-2.34,1.38-3.45-2,.44-2.34.29-3.44-1.38Zm0,0" fill="none" stroke="#2e2d7f" stroke-linecap="round" stroke-linejoin="round" stroke-width="1.99"/><path d="M97.94,52.31c.44,1.95.28,2.34-1.38,3.45,2-.45,2.34-.29,3.44,1.38-.44-2-.28-2.34,1.39-3.45-2,.44-2.34.29-3.45-1.38Zm0,0" fill="none" stroke="#7771ff" stroke-linecap="round" stroke-linejoin="round" stroke-width="1.99"/><path d="M10.32,88.4c-.49,2-.81,2.29-2.87,2.54,2,.5,2.3.82,2.55,2.87.49-2,.82-2.29,2.87-2.54-2-.5-2.29-.82-2.55-2.87Zm0,0" fill="none" stroke="#7771ff" stroke-linecap="round" stroke-linejoin="round" stroke-width="1.99"/><polyline points="63.31 52.5 65.59 72.25 71.29 45.28" fill="none" stroke="#7771ff" stroke-linecap="round" stroke-linejoin="round" stroke-width="3.19"/><circle cx="36.72" cy="76.43" r="1.52" fill="#2e2d7f"/><circle cx="93.9" cy="65.6" r="1.52" fill="#2e2d7f"/><circle cx="61.99" cy="41.29" r="1.52" fill="#2e2d7f"/><circle cx="69.96" cy="97.9" r="1.52" fill="#2e2d7f"/></svg>