<svg xmlns="http://www.w3.org/2000/svg" width="120" height="120" viewBox="0 0 120 120"><title>Peace of mind</title><path d="M84.76,71.44a26.47,26.47,0,0,0-50.55,11c0,.38,0,.75,0,1.13l.06-.08a36.45,36.45,0,1,0-8.06-13.18" fill="none" stroke="#2e2d7f" stroke-linecap="round" stroke-linejoin="round" stroke-width="1.99"/><path d="M60.68,35.31a13.64,13.64,0,1,1-9.64,4" fill="#fff" stroke="#2e2d7f" stroke-linecap="round" stroke-linejoin="round" stroke-width="1.99"/><path d="M52.63,99.27l32.84.06,6.66-6.91L85.42,85.7l-3.71,4.08L76.25,85.7,71.1,89.47l-5-3.58-2.82,3.45h-4l-2.7-3.71H52.7a6.47,6.47,0,0,1,.44,1.07c.06.07.06.19.12.26a18.1,18.1,0,0,1,1,5.52,14.91,14.91,0,0,1-1,5.53.32.32,0,0,1-.12.25C53,98.57,52.82,98.94,52.63,99.27Z" fill="#fff"/><rect x="45.39" y="86.93" width="1.77" height="1.77" fill="#2e2d7f"/><rect x="45.33" y="91.57" width="1.77" height="1.77" fill="#2e2d7f"/><rect x="45.35" y="96.24" width="1.77" height="1.77" fill="#2e2d7f"/><path d="M85.79,100.27l7.6-7.85-8-8-3.7,4.2-5.4-4L71.1,88.34,66,84.57l-3,3.76H59.8L57,84.75H53.2a18.46,18.46,0,0,0-3.27-4.52,17.32,17.32,0,1,0,0,24.5,18.59,18.59,0,0,0,3.26-4.52Z" fill="#fff" stroke="#ffd013" stroke-linecap="round" stroke-linejoin="round" stroke-width="1.99"/><circle cx="32.68" cy="92.17" r="5.45" fill="none" stroke="#2e2d7f" stroke-linecap="round" stroke-linejoin="round" stroke-width="1.99"/><polyline points="7.43 39.49 11.91 41.16 17.5 31.1" fill="none" stroke="#ffd013" stroke-linecap="round" stroke-linejoin="round" stroke-width="1.99"/><polyline points="102.5 75.84 106.97 77.51 112.57 67.45" fill="none" stroke="#2e2d7f" stroke-linecap="round" stroke-linejoin="round" stroke-width="1.99"/><line x1="90.48" y1="13.42" x2="93.67" y2="10.22" fill="none" stroke="#ffd013" stroke-linecap="round" stroke-linejoin="round" stroke-width="1.99"/><line x1="86.93" y1="13.38" x2="83.74" y2="10.18" fill="none" stroke="#ffd013" stroke-linecap="round" stroke-linejoin="round" stroke-width="1.99"/><line x1="83.66" y1="20.31" x2="86.86" y2="17.12" fill="none" stroke="#ffd013" stroke-linecap="round" stroke-linejoin="round" stroke-width="1.99"/><line x1="93.67" y1="20.43" x2="90.48" y2="17.23" fill="none" stroke="#ffd013" stroke-linecap="round" stroke-linejoin="round" stroke-width="1.99"/><line x1="57.39" y1="104.73" x2="78.64" y2="104.73" fill="none" stroke="#2e2d7f" stroke-linecap="round" stroke-linejoin="round" stroke-width="1.99"/><path d="M53.29,16.75s-16-.38-22.37,11.18" fill="none" stroke="#2e2d7f" stroke-linecap="round" stroke-linejoin="round" stroke-width="1.99"/></svg>