<svg xmlns="http://www.w3.org/2000/svg" width="120" height="120" viewBox="0 0 120 120"><title>Lrg icon</title><circle cx="45.45" cy="35.45" r="3" fill="none" stroke="#2e2d7f" stroke-linecap="round" stroke-linejoin="round" stroke-width="1.8"/><path d="M77.29,64.53A43.87,43.87,0,0,0,70.06,47.8" fill="#fff" stroke="#ffd013" stroke-linecap="round" stroke-linejoin="round" stroke-width="1.8"/><path d="M76.75,24.83s5.7,30.29,5.6,39.79" fill="#fff" stroke="#ffd013" stroke-linecap="round" stroke-linejoin="round" stroke-width="1.8"/><path d="M93,64.53a44,44,0,0,1,7.24-16.73" fill="#fff" stroke="#ffd013" stroke-linecap="round" stroke-linejoin="round" stroke-width="1.8"/><path d="M91.76,37.4S87.87,58.11,88,64.62" fill="#fff" stroke="#ffd013" stroke-linecap="round" stroke-linejoin="round" stroke-width="1.8"/><circle cx="75.44" cy="18" r="6.56" fill="#fff" stroke="#ffd013" stroke-linecap="round" stroke-linejoin="round" stroke-width="1.8"/><circle cx="92.91" cy="32.8" r="4.62" fill="#fff" stroke="#ffd013" stroke-linecap="round" stroke-linejoin="round" stroke-width="1.8"/><circle cx="102.95" cy="43.64" r="4.62" fill="#fff" stroke="#ffd013" stroke-linecap="round" stroke-linejoin="round" stroke-width="1.8"/><circle cx="67.33" cy="43.78" r="4.62" fill="#fff" stroke="#ffd013" stroke-linecap="round" stroke-linejoin="round" stroke-width="1.8"/><line x1="29.41" y1="63.48" x2="29.41" y2="76.1" fill="#fff" stroke="#ffd013" stroke-linecap="round" stroke-linejoin="round" stroke-width="1.8"/><path d="M42,65.23s6.4-5.94,0-13.64" fill="#fff" stroke="#ffd013" stroke-linecap="round" stroke-linejoin="round" stroke-width="1.8"/><path d="M38.93,61.8a4.35,4.35,0,0,0,0-6.5" fill="#fff" stroke="#ffd013" stroke-linecap="round" stroke-linejoin="round" stroke-width="1.8"/><path d="M15.81,65.23s-6.4-5.94,0-13.64" fill="#fff" stroke="#ffd013" stroke-linecap="round" stroke-linejoin="round" stroke-width="1.8"/><path d="M18.88,61.8a4.34,4.34,0,0,1,0-6.5" fill="#fff" stroke="#ffd013" stroke-linecap="round" stroke-linejoin="round" stroke-width="1.8"/><circle cx="29.37" cy="59.35" r="3.76" fill="#fff" stroke="#ffd013" stroke-linecap="round" stroke-linejoin="round" stroke-width="1.8"/><path d="M92.44,64.71H73.1a1.78,1.78,0,0,0-1.78,1.77V83.55a1.78,1.78,0,0,0,1.78,1.77h24a1.78,1.78,0,0,0,1.77-1.77V66.48a1.77,1.77,0,0,0-1.77-1.77Z" fill="#fff"/><path d="M92.44,64.71H73.1a1.78,1.78,0,0,0-1.78,1.77V83.55a1.78,1.78,0,0,0,1.78,1.77h24a1.78,1.78,0,0,0,1.77-1.77V66.48a1.77,1.77,0,0,0-1.77-1.77Z" fill="none" stroke="#2e2d7f" stroke-linecap="round" stroke-linejoin="round" stroke-width="1.8"/><rect x="16.37" y="74.96" width="67.65" height="21.15" rx="3.55" fill="#fff"/><rect x="16.37" y="74.96" width="67.65" height="21.15" rx="3.55" stroke-width="1.8" stroke="#2e2d7f" stroke-linecap="round" stroke-linejoin="round" fill="none"/><rect x="69.69" y="80.36" width="6.44" height="6.44" rx="1.61" fill="#fff"/><rect x="69.69" y="80.36" width="6.44" height="6.44" rx="1.61" stroke-width="1.8" stroke="#2e2d7f" stroke-linecap="round" stroke-linejoin="round" fill="none"/><rect x="59.76" y="80.36" width="6.44" height="6.44" rx="1.61" fill="#fff"/><rect x="59.76" y="80.36" width="6.44" height="6.44" rx="1.61" stroke-width="1.8" stroke="#2e2d7f" stroke-linecap="round" stroke-linejoin="round" fill="none"/><rect x="50.01" y="80.36" width="6.44" height="6.44" rx="1.61" fill="#fff"/><rect x="50.01" y="80.36" width="6.44" height="6.44" rx="1.61" stroke-width="1.8" stroke="#2e2d7f" stroke-linecap="round" stroke-linejoin="round" fill="none"/><polyline points="111.73 107.39 101.23 105.81 105.16 101.88 94.4 98.99" fill="#fff" stroke="#ffd013" stroke-linecap="round" stroke-linejoin="round" stroke-width="1.8"/><polyline points="10.52 27.08 26.95 24.61 20.79 18.45 37.63 13.93" fill="#fff" stroke="#ffd013" stroke-linecap="round" stroke-linejoin="round" stroke-width="1.8"/><line x1="97.62" y1="15.11" x2="104.56" y2="15.11" fill="none" stroke="#2e2d7f" stroke-linecap="round" stroke-linejoin="round" stroke-width="1.8"/><line x1="101.25" y1="11.61" x2="101.25" y2="18.48" fill="none" stroke="#2e2d7f" stroke-linecap="round" stroke-linejoin="round" stroke-width="1.8"/><line x1="9.62" y1="107.61" x2="16.56" y2="107.61" fill="none" stroke="#2e2d7f" stroke-linecap="round" stroke-linejoin="round" stroke-width="1.8"/><line x1="13.25" y1="104.11" x2="13.25" y2="110.98" fill="none" stroke="#2e2d7f" stroke-linecap="round" stroke-linejoin="round" stroke-width="1.8"/></svg>